<mxfile host="app.diagrams.net" modified="2024-01-31T08:24:16.485Z" agent="Mozilla/5.0 (Windows NT 10.0; Win64; x64) AppleWebKit/537.36 (KHTML, like Gecko) Chrome/120.0.0.0 Safari/537.36" version="23.0.2" etag="khxyYEv74JwSUlo2ocuE" type="github">
  <diagram name="Page-1" id="TsyUQw2Yk8nOefq02oEq">
    <mxGraphModel>
      <root>
        <mxCell id="0" />
        <mxCell id="1" parent="0" />
      </root>
    </mxGraphModel>
  </diagram>
</mxfile>
